<svg width="61" height="19" viewBox="0 0 61 19" fill="none" xmlns="http://www.w3.org/2000/svg">
<path d="M5.02344 14.8359H12.1836V18H0.910156V0.9375H5.02344V14.8359Z" fill="#797683"/>
<path d="M27.6172 9.82031C27.6172 11.4844 27.3086 12.957 26.6914 14.2383C26.0742 15.5195 25.1953 16.5078 24.0547 17.2031C22.9219 17.8906 21.6289 18.2344 20.1758 18.2344C18.7227 18.2344 17.4336 17.9023 16.3086 17.2383C15.1836 16.5664 14.3047 15.6094 13.6719 14.3672C13.0469 13.125 12.7188 11.6992 12.6875 10.0898V9.12891C12.6875 7.45703 12.9922 5.98438 13.6016 4.71094C14.2188 3.42969 15.0977 2.44141 16.2383 1.74609C17.3867 1.05078 18.6914 0.703125 20.1523 0.703125C21.5977 0.703125 22.8867 1.04688 24.0195 1.73438C25.1523 2.42188 26.0312 3.40234 26.6562 4.67578C27.2891 5.94141 27.6094 7.39453 27.6172 9.03516V9.82031ZM23.4336 9.10547C23.4336 7.41016 23.1484 6.125 22.5781 5.25C22.0156 4.36719 21.207 3.92578 20.1523 3.92578C18.0898 3.92578 17 5.47266 16.8828 8.56641L16.8711 9.82031C16.8711 11.4922 17.1484 12.7773 17.7031 13.6758C18.2578 14.5742 19.082 15.0234 20.1758 15.0234C21.2148 15.0234 22.0156 14.582 22.5781 13.6992C23.1406 12.8164 23.4258 11.5469 23.4336 9.89062V9.10547Z" fill="#797683"/>
<path d="M43.707 15.8906C43.0742 16.5938 42.1484 17.1602 40.9297 17.5898C39.7109 18.0195 38.375 18.2344 36.9219 18.2344C34.6875 18.2344 32.9023 17.5508 31.5664 16.1836C30.2305 14.8164 29.5156 12.9141 29.4219 10.4766L29.4102 9C29.4102 7.32031 29.707 5.85547 30.3008 4.60547C30.8945 3.34766 31.7422 2.38281 32.8438 1.71094C33.9531 1.03125 35.2344 0.691406 36.6875 0.691406C38.8125 0.691406 40.4609 1.17969 41.6328 2.15625C42.8125 3.125 43.5 4.57422 43.6953 6.50391H39.7344C39.5938 5.55078 39.2891 4.87109 38.8203 4.46484C38.3516 4.05859 37.6875 3.85547 36.8281 3.85547C35.7969 3.85547 35 4.29297 34.4375 5.16797C33.875 6.04297 33.5898 7.29297 33.582 8.91797V9.94922C33.582 11.6523 33.8711 12.9336 34.4492 13.793C35.0352 14.6445 35.9531 15.0703 37.2031 15.0703C38.2734 15.0703 39.0703 14.832 39.5938 14.3555V11.707H36.7344V8.88281H43.707V15.8906Z" fill="#797683"/>
<path d="M60.5469 9.82031C60.5469 11.4844 60.2383 12.957 59.6211 14.2383C59.0039 15.5195 58.125 16.5078 56.9844 17.2031C55.8516 17.8906 54.5586 18.2344 53.1055 18.2344C51.6523 18.2344 50.3633 17.9023 49.2383 17.2383C48.1133 16.5664 47.2344 15.6094 46.6016 14.3672C45.9766 13.125 45.6484 11.6992 45.6172 10.0898V9.12891C45.6172 7.45703 45.9219 5.98438 46.5312 4.71094C47.1484 3.42969 48.0273 2.44141 49.168 1.74609C50.3164 1.05078 51.6211 0.703125 53.082 0.703125C54.5273 0.703125 55.8164 1.04688 56.9492 1.73438C58.082 2.42188 58.9609 3.40234 59.5859 4.67578C60.2188 5.94141 60.5391 7.39453 60.5469 9.03516V9.82031ZM56.3633 9.10547C56.3633 7.41016 56.0781 6.125 55.5078 5.25C54.9453 4.36719 54.1367 3.92578 53.082 3.92578C51.0195 3.92578 49.9297 5.47266 49.8125 8.56641L49.8008 9.82031C49.8008 11.4922 50.0781 12.7773 50.6328 13.6758C51.1875 14.5742 52.0117 15.0234 53.1055 15.0234C54.1445 15.0234 54.9453 14.582 55.5078 13.6992C56.0703 12.8164 56.3555 11.5469 56.3633 9.89062V9.10547Z" fill="#797683"/>
</svg>
