<svg width="21" height="20" viewBox="0 0 21 20" fill="none" xmlns="http://www.w3.org/2000/svg">
<path d="M16.1603 7.69217H14.6219C14.6213 7.08032 14.3779 6.49372 13.9453 6.06108C13.5127 5.62844 12.9261 5.38512 12.3142 5.38451V3.84607C13.3339 3.84729 14.3114 4.2529 15.0325 4.97391C15.7535 5.69493 16.1591 6.67249 16.1603 7.69217Z" fill="#797683"/>
<path d="M19.2372 7.69214H17.6987C17.6971 6.26457 17.1293 4.89594 16.1199 3.8865C15.1104 2.87705 13.7418 2.30923 12.3142 2.3076V0.769165C14.1497 0.771201 15.9094 1.50124 17.2072 2.79911C18.5051 4.09697 19.2351 5.85668 19.2372 7.69214Z" fill="#797683"/>
<path d="M17.6988 19.9997H17.5681C2.45291 19.1305 0.306783 6.37683 0.00678796 2.48458C-0.0400989 1.87439 0.157311 1.27057 0.555597 0.80593C0.953882 0.341288 1.52042 0.0538797 2.1306 0.00692374C2.19163 0.00230843 2.25291 7.21213e-07 2.31445 7.21213e-07H6.36823C6.67635 -0.000297554 6.97745 0.0919299 7.23255 0.264737C7.48765 0.437543 7.68498 0.682967 7.79898 0.969217L8.96819 3.8461C9.08077 4.12574 9.1087 4.4323 9.04853 4.72769C8.98836 5.02308 8.84273 5.29428 8.62973 5.50761L6.9913 7.16143C7.24619 8.61628 7.94235 9.95753 8.98537 11.0033C10.0284 12.0491 11.3678 12.7488 12.822 13.0075L14.4912 11.3537C14.7077 11.143 14.9815 11.0008 15.2783 10.9447C15.5752 10.8886 15.8819 10.9212 16.1604 11.0383L19.0603 12.1998C19.3423 12.3174 19.5828 12.5163 19.7513 12.7711C19.9198 13.0259 20.0086 13.3251 20.0065 13.6306V17.692C20.0065 18.3041 19.7634 18.891 19.3306 19.3238C18.8978 19.7566 18.3109 19.9997 17.6988 19.9997ZM2.31445 1.53844C2.21343 1.53814 2.11334 1.55773 2.0199 1.59611C1.92646 1.63449 1.84149 1.69089 1.76985 1.76211C1.69821 1.83332 1.64129 1.91795 1.60235 2.01116C1.56342 2.10437 1.54322 2.20434 1.54292 2.30535C1.54292 2.32689 1.54369 2.34817 1.54523 2.3692C1.89907 6.92297 4.16826 17.692 17.6527 18.4613C17.8563 18.4735 18.0564 18.4043 18.209 18.269C18.3616 18.1337 18.4542 17.9433 18.4665 17.7397L18.4681 17.692V13.6306L15.5681 12.469L13.3604 14.6613L12.9912 14.6152C6.299 13.7767 5.39132 7.08451 5.39132 7.01528L5.34517 6.64606L7.52975 4.4384L6.37592 1.53844H2.31445Z" fill="#797683"/>
</svg>
