<svg width="24" height="24" viewBox="0 0 24 24" fill="none" xmlns="http://www.w3.org/2000/svg">
<path fill-rule="evenodd" clip-rule="evenodd" d="M12 24C5.37258 24 0 18.6274 0 12C0 5.37258 5.37258 0 12 0C18.6274 0 24 5.37258 24 12C24 18.6274 18.6274 24 12 24ZM12.3955 18.6763C16.3297 18.6747 19.5295 15.4741 19.5311 11.5408C19.5318 9.63417 18.7903 7.84141 17.4431 6.49271C16.0959 5.14393 14.3043 4.40082 12.3955 4.4C8.46241 4.4 5.26139 7.60085 5.25982 11.5351C5.25929 12.7927 5.58787 14.0203 6.21231 15.1024L5.2 18.8L8.98267 17.8077C10.0249 18.3762 11.1984 18.6758 12.3926 18.6763H12.3955Z" fill="#4700FF"/>
<path fill-rule="evenodd" clip-rule="evenodd" d="M9.15794 16.5159L6.91325 17.1048L7.51239 14.9162L7.37138 14.6918C6.7777 13.7476 6.46414 12.6562 6.4646 11.5355C6.4659 8.26556 9.12647 5.60522 12.3979 5.60522C13.982 5.60577 15.4711 6.22345 16.5908 7.3445C17.7106 8.46555 18.3269 9.95561 18.3263 11.5403C18.325 14.8106 15.6644 17.4712 12.3955 17.4712H12.3931C11.3289 17.4708 10.2851 17.1848 9.37451 16.6445L9.15794 16.5159ZM15.9904 13.2376C15.9458 13.1632 15.827 13.1186 15.6487 13.0293C15.4704 12.9401 14.5938 12.5088 14.4304 12.4492C14.267 12.3898 14.1481 12.36 14.0292 12.5385C13.9104 12.7169 13.5687 13.1186 13.4647 13.2376C13.3607 13.3565 13.2567 13.3715 13.0784 13.2822C12.9002 13.193 12.3257 13.0047 11.6446 12.3972C11.1146 11.9245 10.7568 11.3406 10.6528 11.1621C10.5488 10.9836 10.6417 10.8872 10.7309 10.7983C10.8112 10.7184 10.9092 10.59 10.9984 10.4859C11.0875 10.3818 11.1172 10.3074 11.1767 10.1885C11.2361 10.0694 11.2064 9.96536 11.1618 9.87611C11.1172 9.78686 10.7607 8.90926 10.6121 8.55226C10.4674 8.20459 10.3204 8.25169 10.2109 8.2462C10.1071 8.24098 9.98808 8.23988 9.86923 8.23988C9.75038 8.23988 9.55721 8.28451 9.39378 8.46301C9.23036 8.64151 8.76977 9.07286 8.76977 9.95039C8.76977 10.828 9.40863 11.6758 9.49779 11.7948C9.58693 11.9138 10.755 13.7147 12.5436 14.4869C12.9689 14.6707 13.301 14.7804 13.56 14.8625C13.9871 14.9983 14.3758 14.9791 14.683 14.9332C15.0255 14.882 15.7378 14.5019 15.8865 14.0854C16.035 13.6689 16.035 13.3119 15.9904 13.2376Z" fill="#4700FF"/>
</svg>
